<?xml version="1.0" encoding="utf-8"?>
<!-- Generator: Adobe Illustrator 16.0.0, SVG Export Plug-In . SVG Version: 6.00 Build 0)  -->
<!DOCTYPE svg PUBLIC "-//W3C//DTD SVG 1.1//EN" "http://www.w3.org/Graphics/SVG/1.1/DTD/svg11.dtd">
<svg version="1.1" id="图形" xmlns="http://www.w3.org/2000/svg" xmlns:xlink="http://www.w3.org/1999/xlink" x="0px" y="0px"
	 width="1000.637px" height="1000.678px" viewBox="15.167 -16.333 1000.637 1000.678"
	 enable-background="new 15.167 -16.333 1000.637 1000.678" xml:space="preserve">
<path fill="#231F20" d="M264.442,789.442h401.668c99.795,0,184.097-86.231,184.097-188.281c0-14.956-2.353-29.373-5.752-43.427
	c61.518-16.248,106.17-71.832,106.17-136.489c0-74.037-56.844-135.066-131.6-141.458c-17.848-59.375-73.158-101.216-136.18-101.216
	c-65.538,0-121.012,45.01-136.798,107.248c-15.232-4.084-30.955-6.831-47.3-6.831c-86.327,0-159.679,60.05-178.574,142.766
	c-18.174-5.901-36.84-8.876-55.732-8.876c-99.795,0-184.098,86.229-184.098,188.284C80.344,703.21,164.647,789.442,264.442,789.442z
	 M682.846,212.042c51.614,0,96.431,36.677,106.595,87.229c1.603,7.91,10.233,13.157,18.928,13.189
	c59.981,0,108.785,48.804,108.785,108.785c0,50.111-35.204,93.079-83.321,104.731c-27.754-62.859-88.226-108.866-157.916-112.821
	c-14.577-51.827-51.287-93.275-98.226-115.75C588.575,248.097,631.626,212.042,682.846,212.042z M264.442,446.348
	c21.083,0,41.905,4.594,61.912,13.648c4.87,2.208,10.492,1.946,15.2-0.704c4.64-2.662,7.747-7.386,8.336-12.715
	c8.432-76.458,72.402-134.119,148.858-134.119c71.455,0,133.53,50.798,147.619,120.8c1.602,7.99,8.467,13.465,16.901,13.435
	c1.209-0.051,2.385-0.18,2.843-0.346c81.652,0,150.625,70.9,150.625,154.813c0,83.909-68.973,154.811-150.625,154.811H264.442
	c-81.654,0-150.626-70.901-150.626-154.811C113.816,517.248,182.789,446.348,264.442,446.348z"/>
</svg>
