<?xml version="1.0" encoding="utf-8"?>
<!-- Generator: Adobe Illustrator 16.0.0, SVG Export Plug-In . SVG Version: 6.00 Build 0)  -->
<!DOCTYPE svg PUBLIC "-//W3C//DTD SVG 1.1//EN" "http://www.w3.org/Graphics/SVG/1.1/DTD/svg11.dtd">
<svg version="1.1" id="图形" xmlns="http://www.w3.org/2000/svg" xmlns:xlink="http://www.w3.org/1999/xlink" x="0px" y="0px"
	 width="1000.637px" height="1000.678px" viewBox="15.167 -16.333 1000.637 1000.678"
	 enable-background="new 15.167 -16.333 1000.637 1000.678" xml:space="preserve">
<g>
	<path fill="#231F20" d="M617.817,218.693c8.38,0,15.16-6.78,15.16-15.16v-60.642c0-8.379-6.78-15.16-15.16-15.16
		s-15.16,6.781-15.16,15.16v60.642C602.657,211.913,609.437,218.693,617.817,218.693z"/>
	<path fill="#231F20" d="M936.184,446.098h-60.642c-8.38,0-15.16,6.782-15.16,15.16c0,8.38,6.78,15.161,15.16,15.161h60.642
		c8.38,0,15.16-6.781,15.16-15.161C951.344,452.88,944.564,446.098,936.184,446.098z"/>
	<path fill="#231F20" d="M610.237,840.281c90.399,0,166.764-78.405,166.764-171.205c0-39.114-14.124-75.207-36.627-104.432
		c37.842-33.489,59.635-81.015,59.635-131.811c0-97.209-79.088-176.282-176.3-176.282c-75.328,0-142.837,49.241-166.762,120.215
		c-77.46,0.8-143.076,54.794-160.072,129.175c-16.463-5.346-33.4-8.041-50.485-8.041c-90.399,0-166.764,78.379-166.764,171.176
		c0,92.8,76.364,171.205,166.764,171.205H610.237z M623.708,286.871c80.48,0,145.979,65.482,145.979,145.962
		c0,42.238-18.182,81.74-49.745,109.513c-27.539-25.227-62.478-42.003-100.794-44.194c-17.32-61.514-68.782-107.379-130.816-118.691
		C510.125,324.52,563.836,286.871,623.708,286.871z M109.946,669.075c0-76.332,62.478-140.855,136.443-140.855
		c19.098,0,37.959,4.178,56.051,12.349c4.412,2.013,9.535,1.777,13.77-0.622c4.233-2.398,7.018-6.69,7.55-11.518
		c7.669-69.258,65.645-121.49,134.874-121.49c64.729,0,120.957,46.015,133.72,109.409c1.421,7.106,7.667,12.17,14.864,12.17
		c1.096,0,2.456-0.149,3.019-0.298c73.966,0,136.443,64.523,136.443,140.855c0,76.366-62.478,140.885-136.443,140.885H246.389
		C172.424,809.96,109.946,745.442,109.946,669.075z"/>
	<path fill="#231F20" d="M432.429,287.448c2.961,2.961,6.869,4.441,10.718,4.441c3.909,0,7.758-1.48,10.719-4.441
		c5.922-5.922,5.922-15.516,0-21.438l-42.875-42.875c-5.922-5.922-15.516-5.922-21.438,0s-5.922,15.516,0,21.438L432.429,287.448z"
		/>
	<path fill="#231F20" d="M807.647,291.889c3.849,0,7.757-1.48,10.719-4.441l42.875-42.875c5.922-5.922,5.922-15.516,0-21.438
		s-15.517-5.922-21.437,0l-42.878,42.875c-5.919,5.922-5.919,15.516,0,21.438C799.889,290.409,803.738,291.889,807.647,291.889z"/>
	<path fill="#231F20" d="M814.369,608.732l42.873,42.875c2.965,2.96,6.842,4.442,10.721,4.442s7.756-1.482,10.721-4.442
		c5.92-5.922,5.92-15.517,0-21.437l-42.878-42.878c-5.92-5.92-15.517-5.92-21.437,0C808.445,593.217,808.445,602.81,814.369,608.732
		z"/>
</g>
</svg>
