<?xml version="1.0" encoding="utf-8"?>
<!-- Generator: Adobe Illustrator 16.0.0, SVG Export Plug-In . SVG Version: 6.00 Build 0)  -->
<!DOCTYPE svg PUBLIC "-//W3C//DTD SVG 1.1//EN" "http://www.w3.org/Graphics/SVG/1.1/DTD/svg11.dtd">
<svg version="1.1" id="图形" xmlns="http://www.w3.org/2000/svg" xmlns:xlink="http://www.w3.org/1999/xlink" x="0px" y="0px"
	 width="1000.637px" height="1000.678px" viewBox="15.167 -16.333 1000.637 1000.678"
	 enable-background="new 15.167 -16.333 1000.637 1000.678" xml:space="preserve">
<path fill="#231F20" d="M776.284,440.767c-22.567-80.302-96.618-137.219-181.199-137.219c-28.519,0-55.361,6.97-79.668,18.504
	c-7.924-45.183-28.718-87.207-61.481-120.004c-29.888-29.904-67.648-50.632-109.17-59.975c-5.8-1.355-11.734,0.435-15.864,4.597
	c-4.146,4.146-5.882,10.129-4.597,15.862c14.443,64.106-4.547,129.982-50.782,176.219c-46.219,46.235-112.146,65.19-176.219,50.782
	c-5.75-1.337-11.734,0.435-15.862,4.597c-4.147,4.146-5.884,10.131-4.599,15.864c9.345,41.522,30.072,79.267,59.977,109.17
	c14.175,14.159,30.407,25.608,47.574,35.453c-10.934,24.239-17.233,50.898-17.233,78.816c0,104.59,86.218,192.951,188.285,192.951
	h410.81c102.066,0,188.288-88.361,188.288-192.951C954.543,532.303,873.906,446.334,776.284,440.767z M161.025,494.96
	c-19.173-19.173-33.899-42.191-43.36-67.532c66.51,6.686,132.17-16.583,180.062-64.472c47.891-47.892,71.025-113.601,64.474-180.063
	c25.341,9.461,48.358,24.188,67.532,43.361c30.89,30.89,49.479,71.392,54.025,114.603c-35.036,26.109-61.097,63.989-71.31,108.703
	c-18.587-6.034-37.677-9.076-57.001-9.076c-63.101,0-120.086,33.832-154.437,84.33C186.582,516.507,172.961,506.878,161.025,494.96z
	 M766.255,792.15h-410.81c-83.512,0-154.053-72.682-154.053-158.717c0-86.038,70.542-158.716,154.053-158.716
	c21.581,0,42.877,4.697,63.287,13.958c4.998,2.257,10.765,1.99,15.546-0.719c4.747-2.708,7.956-7.539,8.559-12.988
	c8.625-78.214,74.084-137.188,152.248-137.188c73.084,0,136.604,51.953,150.976,123.547c1.605,7.99,8.627,13.74,16.786,13.74
	c1.736,0.034,2.906-0.15,3.409-0.351c83.512,0,154.053,72.678,154.053,158.716C920.308,719.468,849.767,792.15,766.255,792.15z"/>
</svg>
