<?xml version="1.0" encoding="utf-8"?>
<!-- Generator: Adobe Illustrator 16.0.0, SVG Export Plug-In . SVG Version: 6.00 Build 0)  -->
<!DOCTYPE svg PUBLIC "-//W3C//DTD SVG 1.1//EN" "http://www.w3.org/Graphics/SVG/1.1/DTD/svg11.dtd">
<svg version="1.1" id="图形" xmlns="http://www.w3.org/2000/svg" xmlns:xlink="http://www.w3.org/1999/xlink" x="0px" y="0px"
	 width="1000.637px" height="1000.678px" viewBox="15.167 -16.333 1000.637 1000.678"
	 enable-background="new 15.167 -16.333 1000.637 1000.678" xml:space="preserve">
<path fill="#231F20" d="M597.615,859.494c70.816,0,140.079-20.168,200.301-58.302c6.783-4.264,10.913-11.733,10.913-19.801
	c0-8.066-4.13-15.539-10.913-19.801c-96.021-60.779-153.358-164.548-153.358-277.575c0-113.072,57.337-216.84,153.358-277.573
	c6.783-4.309,10.913-11.826,10.913-19.844c0-8.023-4.13-15.54-10.913-19.849c-60.222-38.086-129.484-58.233-200.301-58.233
	c-207.029,0-375.472,168.419-375.472,375.499C222.143,691.008,390.586,859.494,597.615,859.494z M597.615,155.451
	c49.964,0,99.051,11.482,143.832,33.391c-90.704,71-143.832,178.754-143.832,295.173c0,116.375,53.128,224.13,143.832,295.081
	c-44.781,21.956-93.868,33.463-143.832,33.463c-181.135,0-328.538-147.403-328.538-328.544
	C269.077,302.834,416.479,155.451,597.615,155.451z"/>
</svg>
