<?xml version="1.0" encoding="utf-8"?>
<!-- Generator: Adobe Illustrator 16.0.0, SVG Export Plug-In . SVG Version: 6.00 Build 0)  -->
<!DOCTYPE svg PUBLIC "-//W3C//DTD SVG 1.1//EN" "http://www.w3.org/Graphics/SVG/1.1/DTD/svg11.dtd">
<svg version="1.1" id="图形" xmlns="http://www.w3.org/2000/svg" xmlns:xlink="http://www.w3.org/1999/xlink" x="0px" y="0px"
	 width="1000.637px" height="1000.678px" viewBox="15.167 -16.333 1000.637 1000.678"
	 enable-background="new 15.167 -16.333 1000.637 1000.678" xml:space="preserve">
<g>
	<path fill="#231F20" d="M776.169,351.043c-22.555-80.266-96.573-137.175-181.117-137.175c-28.501,0-55.338,6.984-79.633,18.479
		c-7.916-45.146-28.67-87.151-61.454-119.935c-29.869-29.906-67.633-50.625-109.136-59.949c-5.746-1.336-11.697,0.436-15.838,4.578
		c-4.146,4.146-5.881,10.159-4.615,15.874c14.437,64.059-4.54,129.924-50.723,176.14c-46.249,46.181-112.013,65.23-176.173,50.759
		c-5.75-1.302-11.697,0.436-15.841,4.58c-4.144,4.144-5.881,10.161-4.612,15.873c9.356,41.503,30.077,79.229,59.951,109.105
		c14.302,14.3,30.675,25.866,48.052,35.757c-11.228,24.727-17.71,51.994-17.71,80.6c0,105.662,86.181,194.952,188.204,194.952
		h410.624c102.023,0,188.203-89.29,188.203-194.952C954.35,443.541,873.751,356.657,776.169,351.043z M161.171,405.176
		c-19.147-19.145-33.886-42.168-43.308-67.5c66.365,6.651,132.096-16.575,179.982-64.427
		c47.853-47.853,70.979-113.552,64.427-179.982c25.331,9.455,48.322,24.191,67.504,43.341
		c30.872,30.875,49.487,71.345,53.999,114.585c-35.021,26.065-61.086,63.924-71.277,108.606
		c-18.577-6.018-37.661-9.057-56.975-9.057c-62.824,0-119.499,33.918-153.919,84.576
		C187.037,426.966,173.267,417.239,161.171,405.176z M766.147,706.462H355.523c-83.474,0-153.985-73.615-153.985-160.733
		c0-87.151,70.511-160.767,153.985-160.767c21.588,0,42.839,4.709,63.26,13.934c4.976,2.275,10.726,2.002,15.539-0.704
		c4.746-2.706,7.954-7.518,8.555-12.996c8.618-78.165,74.049-137.11,152.176-137.11c73.049,0,136.543,51.929,150.913,123.476
		c1.637,8.151,8.053,13.568,17.241,13.765c1.271-0.066,2.471-0.197,2.94-0.366c83.474,0,153.984,73.615,153.984,160.767
		C920.131,632.847,849.621,706.462,766.147,706.462z"/>
	<path fill="#231F20" d="M202.608,910.973l85.449-85.411c6.684-6.684,6.684-17.513,0-24.196c-6.683-6.683-17.513-6.683-24.196,0
		l-85.449,85.416c-6.679,6.684-6.679,17.508,0,24.191c3.344,3.344,7.72,5.014,12.1,5.014
		C194.888,915.987,199.264,914.317,202.608,910.973z"/>
	<path fill="#231F20" d="M339.483,910.973l85.449-85.411c6.683-6.684,6.683-17.513,0-24.196c-6.684-6.683-17.513-6.683-24.196,0
		l-85.448,85.416c-6.679,6.684-6.679,17.508,0,24.191c3.344,3.344,7.72,5.014,12.1,5.014
		C331.764,915.987,336.139,914.317,339.483,910.973z"/>
	<path fill="#231F20" d="M476.356,910.973l85.449-85.411c6.683-6.684,6.683-17.513,0-24.196c-6.684-6.683-17.513-6.683-24.196,0
		l-85.449,85.416c-6.679,6.684-6.679,17.508,0,24.191c3.344,3.344,7.72,5.014,12.101,5.014
		C468.636,915.987,473.012,914.317,476.356,910.973z"/>
	<path fill="#231F20" d="M613.232,910.973l85.448-85.411c6.684-6.684,6.684-17.513,0-24.196c-6.684-6.683-17.513-6.683-24.196,0
		l-85.448,85.416c-6.679,6.684-6.679,17.508,0,24.191c3.344,3.344,7.72,5.014,12.101,5.014
		C605.511,915.987,609.887,914.317,613.232,910.973z"/>
</g>
</svg>
