<?xml version="1.0" encoding="utf-8"?>
<!-- Generator: Adobe Illustrator 16.0.0, SVG Export Plug-In . SVG Version: 6.00 Build 0)  -->
<!DOCTYPE svg PUBLIC "-//W3C//DTD SVG 1.1//EN" "http://www.w3.org/Graphics/SVG/1.1/DTD/svg11.dtd">
<svg version="1.1" id="图形" xmlns="http://www.w3.org/2000/svg" xmlns:xlink="http://www.w3.org/1999/xlink" x="0px" y="0px"
	 width="1000.637px" height="1000.678px" viewBox="15.167 -16.333 1000.637 1000.678"
	 enable-background="new 15.167 -16.333 1000.637 1000.678" xml:space="preserve">
<path fill="#231F20" d="M611.335,922.19c82.637,0,163.458-23.534,233.744-68.036c7.91-4.974,12.727-13.693,12.727-23.107
	c0-9.385-4.816-18.134-12.727-23.13c-112.059-70.904-178.973-191.995-178.973-323.928c0-131.927,66.914-253.023,178.973-323.922
	c7.91-4.996,12.727-13.745,12.727-23.13c0-9.391-4.816-18.134-12.727-23.136c-70.286-44.473-151.107-67.979-233.744-67.979
	c-241.604,0-438.172,196.563-438.172,438.166C173.163,725.597,369.732,922.19,611.335,922.19z M611.335,100.594
	c58.304,0,115.585,13.398,167.848,38.991c-105.854,82.822-167.848,208.573-167.848,344.403
	c0,135.836,61.993,261.581,167.848,344.387c-52.263,25.616-109.544,39.043-167.848,39.043
	c-211.384,0-383.401-172.017-383.401-383.43C227.935,272.582,399.951,100.594,611.335,100.594z"/>
</svg>
