<?xml version="1.0" encoding="utf-8"?>
<!-- Generator: Adobe Illustrator 16.0.0, SVG Export Plug-In . SVG Version: 6.00 Build 0)  -->
<!DOCTYPE svg PUBLIC "-//W3C//DTD SVG 1.1//EN" "http://www.w3.org/Graphics/SVG/1.1/DTD/svg11.dtd">
<svg version="1.1" id="图形" xmlns="http://www.w3.org/2000/svg" xmlns:xlink="http://www.w3.org/1999/xlink" x="0px" y="0px"
	 width="1000.637px" height="1000.678px" viewBox="15.167 -16.333 1000.637 1000.678"
	 enable-background="new 15.167 -16.333 1000.637 1000.678" xml:space="preserve">
<g>
	<path fill="#231F20" d="M380.83,668.442c0-9.709-7.856-17.565-17.565-17.565c-9.708,0-17.565,7.856-17.565,17.565v140.521
		c0,9.709,7.856,17.565,17.565,17.565c9.709,0,17.565-7.856,17.565-17.565V668.442z"/>
	<path fill="#231F20" d="M591.612,668.442c0-9.709-7.855-17.565-17.564-17.565s-17.565,7.856-17.565,17.565v140.521
		c0,9.709,7.856,17.565,17.565,17.565s17.564-7.856,17.564-17.565V668.442z"/>
	<path fill="#231F20" d="M486.221,668.442c0-9.709-7.856-17.565-17.565-17.565s-17.565,7.856-17.565,17.565v70.261
		c0,9.709,7.856,17.565,17.565,17.565s17.565-7.856,17.565-17.565V668.442z"/>
	<path fill="#231F20" d="M697.003,668.442c0-9.709-7.856-17.565-17.565-17.565s-17.565,7.856-17.565,17.565v70.261
		c0,9.709,7.856,17.565,17.565,17.565s17.565-7.856,17.565-17.565V668.442z"/>
	<path fill="#231F20" d="M919.485,394.326c0-106.85-82.749-197.677-182.891-203.544c-23.157-82.423-99.183-140.83-185.979-140.83
		c-90.571,0-167.556,63.005-187.42,149.836c-19.075-6.192-38.664-9.314-58.494-9.314c-104.739,0-193.217,93.35-193.217,203.853
		s88.478,203.854,193.217,203.854h421.565C831.007,598.181,919.485,504.829,919.485,394.326z M146.615,394.326
		c0-89.885,73.863-168.722,158.087-168.722c22.128,0,43.982,4.82,64.978,14.323c5.112,2.35,11.047,2.042,15.918-0.738
		c4.906-2.796,8.165-7.753,8.783-13.328c8.851-80.261,76.024-140.779,156.235-140.779c75.029,0,140.179,53.313,154.931,126.765
		c1.681,8.388,8.851,13.929,17.736,14.118c1.27-0.051,2.504-0.189,2.984-0.36c84.225,0,158.087,78.837,158.087,168.722
		S810.492,563.05,726.267,563.05H304.702C220.479,563.05,146.615,484.211,146.615,394.326z"/>
	<path fill="#231F20" d="M466.186,812.668c-9.709,0-17.565,7.856-17.565,17.565s7.856,17.565,17.565,17.565
		s17.565-7.856,17.565-17.565S475.895,812.668,466.186,812.668z"/>
	<path fill="#231F20" d="M676.968,812.668c-9.709,0-17.565,7.856-17.565,17.565s7.856,17.565,17.565,17.565
		s17.565-7.856,17.565-17.565S686.677,812.668,676.968,812.668z"/>
	<path fill="#231F20" d="M571.577,882.929c-9.709,0-17.565,7.856-17.565,17.565s7.856,17.565,17.565,17.565
		s17.565-7.856,17.565-17.565S581.286,882.929,571.577,882.929z"/>
	<path fill="#231F20" d="M360.794,882.929c-9.709,0-17.565,7.856-17.565,17.565s7.856,17.565,17.565,17.565
		s17.565-7.856,17.565-17.565S370.503,882.929,360.794,882.929z"/>
</g>
</svg>
