<?xml version="1.0" encoding="utf-8"?>
<!-- Generator: Adobe Illustrator 16.0.0, SVG Export Plug-In . SVG Version: 6.00 Build 0)  -->
<!DOCTYPE svg PUBLIC "-//W3C//DTD SVG 1.1//EN" "http://www.w3.org/Graphics/SVG/1.1/DTD/svg11.dtd">
<svg version="1.1" id="图形" xmlns="http://www.w3.org/2000/svg" xmlns:xlink="http://www.w3.org/1999/xlink" x="0px" y="0px"
	 width="1000.637px" height="1000.678px" viewBox="15.167 -16.333 1000.637 1000.678"
	 enable-background="new 15.167 -16.333 1000.637 1000.678" xml:space="preserve">
<g>
	<path fill="#231F20" d="M951.829,421.029c0-108.487-84.767-200.672-187.386-206.645C740.702,129.967,662.86,70.155,573.964,70.155
		c-92.796,0-171.678,64.523-191.989,153.472c-19.54-6.362-39.625-9.523-59.921-9.523c-107.294,0-197.929,94.747-197.929,206.926
		c0,112.143,90.635,206.926,197.929,206.926H753.9C861.194,627.954,951.829,533.171,951.829,421.029z M160.112,421.029
		c0-92.675,74.153-170.938,161.942-170.938c22.668,0,45.054,4.92,66.528,14.655c5.27,2.354,11.333,2.073,16.341-0.738
		c5.008-2.884,8.346-7.944,8.979-13.672c9.085-82.2,77.898-144.194,160.063-144.194c76.842,0,143.579,54.612,158.688,129.855
		c1.707,8.575,7.912,14.27,18.154,14.443c1.317-0.068,2.582-0.209,3.093-0.35c87.787,0,161.941,78.264,161.941,170.938
		c0,92.639-74.154,170.938-161.941,170.938H322.054C234.266,591.967,160.112,513.667,160.112,421.029z"/>
	<path fill="#231F20" d="M289.792,687.208c-7.029-7.028-18.415-7.028-25.444,0l-89.862,89.824c-7.028,7.028-7.028,18.418,0,25.447
		c3.515,3.511,8.118,5.27,12.721,5.27c4.604,0,9.209-1.759,12.724-5.27l89.861-89.831
		C296.821,705.62,296.821,694.238,289.792,687.208z"/>
	<path fill="#231F20" d="M433.741,687.208c-7.028-7.028-18.415-7.028-25.444,0l-89.861,89.824c-7.029,7.028-7.029,18.418,0,25.447
		c3.514,3.511,8.117,5.27,12.72,5.27c4.604,0,9.209-1.759,12.724-5.27l89.861-89.831C440.77,705.62,440.77,694.238,433.741,687.208z
		"/>
	<path fill="#231F20" d="M577.688,687.208c-7.029-7.028-18.412-7.028-25.441,0l-89.863,89.824c-7.029,7.028-7.029,18.418,0,25.447
		c3.514,3.511,8.117,5.27,12.72,5.27c4.606,0,9.209-1.759,12.724-5.27l89.86-89.831C584.716,705.62,584.716,694.238,577.688,687.208
		z"/>
	<path fill="#231F20" d="M696.196,687.208l-89.863,89.824c-7.029,7.028-7.029,18.418,0,25.447c3.514,3.511,8.117,5.27,12.72,5.27
		c4.606,0,9.21-1.759,12.724-5.27l89.86-89.831c7.028-7.028,7.028-18.411,0-25.44C714.607,680.18,703.224,680.18,696.196,687.208z"
		/>
	<path fill="#231F20" d="M552.247,831.156l-35.986,35.987c-7.029,7.029-7.029,18.412,0,25.44c3.514,3.518,8.117,5.273,12.72,5.273
		c4.604,0,9.21-1.756,12.721-5.273l35.987-35.987c7.028-7.028,7.028-18.411,0-25.44
		C570.659,824.128,559.276,824.128,552.247,831.156z"/>
	<path fill="#231F20" d="M408.297,831.156l-35.987,35.987c-7.029,7.029-7.029,18.412,0,25.44c3.514,3.518,8.119,5.273,12.722,5.273
		s9.208-1.756,12.722-5.273l35.987-35.987c7.029-7.028,7.029-18.411,0-25.44C426.712,824.128,415.326,824.128,408.297,831.156z"/>
	<path fill="#231F20" d="M264.349,831.156l-35.987,35.987c-7.029,7.029-7.029,18.412,0,25.44c3.514,3.518,8.119,5.273,12.722,5.273
		s9.208-1.756,12.722-5.273l35.987-35.987c7.029-7.028,7.029-18.411,0-25.44C282.764,824.128,271.377,824.128,264.349,831.156z"/>
	<path fill="#231F20" d="M120.4,831.156l-35.987,35.987c-7.029,7.029-7.029,18.412,0,25.44c3.514,3.518,8.119,5.273,12.722,5.273
		c4.603,0,9.208-1.756,12.722-5.273l35.987-35.987c7.028-7.028,7.028-18.411,0-25.44C138.815,824.128,127.429,824.128,120.4,831.156
		z"/>
</g>
</svg>
