<?xml version="1.0" encoding="utf-8"?>
<!-- Generator: Adobe Illustrator 16.0.0, SVG Export Plug-In . SVG Version: 6.00 Build 0)  -->
<!DOCTYPE svg PUBLIC "-//W3C//DTD SVG 1.1//EN" "http://www.w3.org/Graphics/SVG/1.1/DTD/svg11.dtd">
<svg version="1.1" id="图形" xmlns="http://www.w3.org/2000/svg" xmlns:xlink="http://www.w3.org/1999/xlink" x="0px" y="0px"
	 width="1000.637px" height="1000.678px" viewBox="15.167 -16.333 1000.637 1000.678"
	 enable-background="new 15.167 -16.333 1000.637 1000.678" xml:space="preserve">
<g>
	<path fill="#231F20" d="M289.361,663.027h452.248c110.416,0,207.289-105.669,207.289-226.132
		c0-116.416-90.469-219.03-196.211-225.784C727.843,122.685,646.319,60.006,553.183,60.006
		c-97.185,0-179.795,67.593-201.069,160.748c-20.464-6.643-41.498-9.993-62.753-9.993c-110.417,0-207.289,105.669-207.289,226.133
		C82.072,557.358,178.944,663.027,289.361,663.027z M289.361,248.45c23.74,0,47.185,5.171,69.673,15.366
		c5.521,2.503,11.833,2.208,17.115-0.792c5.245-2.981,8.741-8.299,9.404-14.299c9.514-86.106,81.579-151.031,167.631-151.031
		c80.475,0,150.369,57.196,166.195,135.996c1.804,8.999,9.569,14.686,19.028,15.146c1.362-0.055,2.687-0.202,3.202-0.386
		c97.056,0,169.6,99.485,169.6,188.444c0,88.958-72.544,188.443-169.6,188.443H289.361c-97.075,0-169.6-99.485-169.6-188.443
		C119.761,347.935,192.286,248.45,289.361,248.45z"/>
	<path fill="#231F20" d="M496.641,813.784c0,10.397,8.428,18.844,18.844,18.844c10.397,0,18.845-8.446,18.845-18.844
		c0-10.416-8.447-18.845-18.845-18.845C505.069,794.94,496.641,803.368,496.641,813.784z"/>
	<path fill="#231F20" d="M496.641,813.784c0,10.397,8.465,18.844,18.844,18.844c10.416,0,18.845-8.446,18.845-18.844
		c0-10.416-8.429-18.845-18.845-18.845C505.106,794.94,496.641,803.368,496.641,813.784z"/>
	<path fill="#231F20" d="M534.33,738.406c0-10.416-8.447-18.845-18.845-18.845c-10.416,0-18.844,8.429-18.844,18.845
		c0,10.397,8.428,18.844,18.844,18.844C525.882,757.25,534.33,748.804,534.33,738.406z"/>
	<path fill="#231F20" d="M496.641,738.406c0,10.397,8.465,18.844,18.844,18.844c10.416,0,18.845-8.446,18.845-18.844
		c0-10.416-8.429-18.845-18.845-18.845C505.106,719.562,496.641,727.99,496.641,738.406z"/>
	<path fill="#231F20" d="M534.33,889.161c0-10.416-8.447-18.844-18.845-18.844c-10.416,0-18.844,8.428-18.844,18.844
		c0,10.397,8.428,18.845,18.844,18.845C525.882,908.006,534.33,899.559,534.33,889.161z"/>
	<path fill="#231F20" d="M496.641,738.406c0,10.397,8.428,18.844,18.844,18.844c10.397,0,18.845-8.446,18.845-18.844
		c0-10.416-8.447-18.845-18.845-18.845C505.069,719.562,496.641,727.99,496.641,738.406z"/>
</g>
</svg>
