<?xml version="1.0" encoding="utf-8"?>
<!-- Generator: Adobe Illustrator 16.0.0, SVG Export Plug-In . SVG Version: 6.00 Build 0)  -->
<!DOCTYPE svg PUBLIC "-//W3C//DTD SVG 1.1//EN" "http://www.w3.org/Graphics/SVG/1.1/DTD/svg11.dtd">
<svg version="1.1" id="图形" xmlns="http://www.w3.org/2000/svg" xmlns:xlink="http://www.w3.org/1999/xlink" x="0px" y="0px"
	 width="1000.637px" height="1000.678px" viewBox="15.167 -16.333 1000.637 1000.678"
	 enable-background="new 15.167 -16.333 1000.637 1000.678" xml:space="preserve">
<path fill="#231F20" d="M520.166,703.488c123.565,0,224.146-100.555,224.146-224.147s-100.58-224.147-224.146-224.147
	c-123.622,0-224.149,100.555-224.149,224.147S396.543,703.488,520.166,703.488z M520.166,283.211
	c108.132,0,196.126,87.982,196.126,196.129s-87.994,196.13-196.126,196.13c-108.161,0-196.131-87.983-196.131-196.13
	S412.004,283.211,520.166,283.211z"/>
<path fill="#231F20" d="M516.475,189.813c7.743,0,14.01-6.267,14.01-14.01V63.73c0-7.743-6.267-14.01-14.01-14.01
	s-14.007,6.267-14.007,14.01v112.073C502.468,183.546,508.732,189.813,516.475,189.813z"/>
<path fill="#231F20" d="M530.485,904.281V792.209c0-7.746-6.267-14.01-14.01-14.01s-14.007,6.264-14.007,14.01v112.072
	c0,7.743,6.264,14.01,14.007,14.01S530.485,912.025,530.485,904.281z"/>
<path fill="#231F20" d="M221.292,484.015c0-7.743-6.267-14.01-14.01-14.01H95.209c-7.743,0-14.01,6.267-14.01,14.01
	s6.267,14.01,14.01,14.01h112.073C215.026,498.025,221.292,491.758,221.292,484.015z"/>
<path fill="#231F20" d="M935.76,469.005H823.687c-7.743,0-14.01,6.267-14.01,14.01s6.267,14.01,14.01,14.01H935.76
	c7.743,0,14.01-6.267,14.01-14.01S943.503,469.005,935.76,469.005z"/>
<path fill="#231F20" d="M237.544,786.422l79.268-79.254c5.472-5.474,5.472-14.339,0-19.81c-5.472-5.474-14.337-5.474-19.811,0
	l-79.266,79.251c-5.472,5.474-5.472,14.339,0,19.813c2.737,2.733,6.32,4.104,9.905,4.104
	C231.224,790.526,234.807,789.156,237.544,786.422z"/>
<path fill="#231F20" d="M742.75,275.413c3.586,0,7.169-1.367,9.906-4.104l79.266-79.253c5.474-5.472,5.474-14.337,0-19.81
	c-5.471-5.472-14.336-5.472-19.81,0L732.847,251.5c-5.474,5.472-5.474,14.337,0,19.81
	C735.583,274.046,739.167,275.413,742.75,275.413z"/>
<path fill="#231F20" d="M752.657,687.359c-5.474-5.474-14.339-5.474-19.81,0c-5.474,5.471-5.474,14.336,0,19.81l79.266,79.254
	c2.737,2.733,6.295,4.104,9.906,4.104c3.556,0,7.167-1.37,9.903-4.104c5.474-5.474,5.474-14.339,0-19.813L752.657,687.359z"/>
<path fill="#231F20" d="M297,271.309c2.737,2.737,6.295,4.104,9.906,4.104c3.557,0,7.168-1.367,9.905-4.104
	c5.472-5.472,5.472-14.337,0-19.81l-79.268-79.253c-5.472-5.472-14.336-5.472-19.81,0c-5.472,5.472-5.472,14.337,0,19.81
	L297,271.309z"/>
</svg>
