<?xml version="1.0" encoding="utf-8"?>
<!-- Generator: Adobe Illustrator 16.0.0, SVG Export Plug-In . SVG Version: 6.00 Build 0)  -->
<!DOCTYPE svg PUBLIC "-//W3C//DTD SVG 1.1//EN" "http://www.w3.org/Graphics/SVG/1.1/DTD/svg11.dtd">
<svg version="1.1" id="图形" xmlns="http://www.w3.org/2000/svg" xmlns:xlink="http://www.w3.org/1999/xlink" x="0px" y="0px"
	 width="1000.637px" height="1000.678px" viewBox="15.167 -16.333 1000.637 1000.678"
	 enable-background="new 15.167 -16.333 1000.637 1000.678" xml:space="preserve">
<g>
	<path fill="#231F20" d="M742.957,191.081C719.115,106.27,640.919,46.163,551.626,46.163c-93.195,0-172.414,64.8-192.812,154.165
		c-19.624-6.387-39.795-9.6-60.177-9.6c-105.883,0-198.777,102.037-198.777,218.366c0,116.294,92.895,218.365,198.777,218.365
		h433.695c105.883,0,198.777-102.071,198.777-218.365C931.11,296.681,844.358,197.575,742.957,191.081z M732.333,591.318H298.637
		c-93.088,0-162.636-96.214-162.636-182.224c0-86.013,69.548-182.225,162.636-182.225c22.766,0,45.247,4.941,66.813,14.753
		c5.258,2.364,11.363,2.047,16.411-0.776c5.03-2.858,8.382-7.977,9.017-13.694c9.124-82.589,78.232-144.848,160.749-144.848
		c77.151,0,144.194,54.847,159.389,130.447c1.694,8.437,9.124,14.471,17.716,14.471c1.608,0.036,3.037-0.141,3.602-0.353
		c93.088,0,162.636,96.212,162.636,182.225C894.968,495.104,825.42,591.318,732.333,591.318z"/>
	<path fill="#231F20" d="M388.232,916.521c3.529,3.525,8.17,5.328,12.811,5.328c4.606,0,9.212-1.73,12.742-5.26l114.442-113.72
		c5.188-5.151,6.757-12.916,3.97-19.692c-2.788-6.776-9.387-11.153-16.712-11.153h-46.322l75.792-76.869
		c7.007-7.131,6.938-18.566-0.174-25.556c-7.111-7.023-18.55-6.951-25.557,0.145L413.095,777.389
		c-5.117,5.188-6.617,12.919-3.812,19.659c2.823,6.741,9.39,11.117,16.677,11.117h45.69l-83.349,82.799
		C381.226,897.99,381.189,909.461,388.232,916.521z"/>
</g>
</svg>
