<?xml version="1.0" encoding="utf-8"?>
<!-- Generator: Adobe Illustrator 16.0.0, SVG Export Plug-In . SVG Version: 6.00 Build 0)  -->
<!DOCTYPE svg PUBLIC "-//W3C//DTD SVG 1.1//EN" "http://www.w3.org/Graphics/SVG/1.1/DTD/svg11.dtd">
<svg version="1.1" id="图形" xmlns="http://www.w3.org/2000/svg" xmlns:xlink="http://www.w3.org/1999/xlink" x="0px" y="0px"
	 width="1000.637px" height="1000.678px" viewBox="15.167 -16.333 1000.637 1000.678"
	 enable-background="new 15.167 -16.333 1000.637 1000.678" xml:space="preserve">
<g>
	<path fill="#231F20" d="M736.439,188.445C713.281,106.056,637.32,47.701,550.593,47.701c-90.531,0-167.486,62.948-187.303,149.76
		c-19.063-6.206-38.657-9.326-58.458-9.326c-104.674,0-193.098,93.12-193.098,203.349c0,110.23,88.423,203.351,193.098,203.351
		h421.305c104.676,0,193.098-93.121,193.098-203.351C919.235,284.891,836.538,194.307,736.439,188.445z M726.137,559.728H304.833
		c-84.154,0-157.989-78.655-157.989-168.243c0-89.623,73.835-168.241,157.989-168.241c22.115,0,43.955,4.8,64.903,14.332
		c5.143,2.331,11.022,1.988,15.943-0.755c4.885-2.777,8.144-7.748,8.76-13.303C403.302,143.29,470.433,82.81,550.593,82.81
		c74.949,0,140.075,53.28,154.835,126.721c1.646,8.194,8.862,14.057,17.212,14.057c1.629,0.206,2.965-0.137,3.497-0.343
		c84.154,0,157.989,78.618,157.989,168.241C884.126,481.073,810.292,559.728,726.137,559.728z"/>
	<path fill="#231F20" d="M356.999,915.374c3.411,3.291,7.799,4.937,12.206,4.937c4.595,0,9.171-1.782,12.617-5.349L492.993,800.14
		c4.902-5.074,6.292-12.584,3.549-19.063c-2.762-6.517-9.12-10.697-16.167-10.697h-42.274l70.354-65.384
		c7.098-6.616,7.509-17.726,0.91-24.79c-6.651-7.132-17.727-7.543-24.807-0.927l-103.098,95.764
		c-5.28,4.937-7.028,12.579-4.389,19.267c2.64,6.72,9.12,11.179,16.338,11.179h45.532l-82.354,85.063
		C349.85,897.512,350.021,908.62,356.999,915.374z"/>
	<path fill="#231F20" d="M606.995,779.74l87.668-87.668c6.857-6.857,6.857-17.966,0-24.823s-17.966-6.857-24.823,0l-87.668,87.668
		c-6.856,6.857-6.856,17.966,0,24.823c3.429,3.428,7.92,5.141,12.41,5.141C599.074,784.88,603.566,783.167,606.995,779.74z"/>
	<path fill="#231F20" d="M255.907,779.74l87.669-87.668c6.857-6.857,6.857-17.966,0-24.823c-6.857-6.857-17.966-6.857-24.823,0
		l-87.669,87.668c-6.857,6.857-6.857,17.966,0,24.823c3.428,3.428,7.92,5.141,12.411,5.141
		C247.987,784.88,252.478,783.167,255.907,779.74z"/>
</g>
</svg>
