<?xml version="1.0" encoding="utf-8"?>
<!-- Generator: Adobe Illustrator 16.0.0, SVG Export Plug-In . SVG Version: 6.00 Build 0)  -->
<!DOCTYPE svg PUBLIC "-//W3C//DTD SVG 1.1//EN" "http://www.w3.org/Graphics/SVG/1.1/DTD/svg11.dtd">
<svg version="1.1" id="图形" xmlns="http://www.w3.org/2000/svg" xmlns:xlink="http://www.w3.org/1999/xlink" x="0px" y="0px"
	 width="1000.637px" height="1000.678px" viewBox="15.167 -16.333 1000.637 1000.678"
	 enable-background="new 15.167 -16.333 1000.637 1000.678" xml:space="preserve">
<g>
	<path fill="#231F20" d="M742.294,186.547c-23.327-82.901-99.793-141.649-187.059-141.649c-91.13,0-168.562,63.373-188.507,150.707
		c-19.186-6.229-38.923-9.37-58.833-9.37c-105.347,0-194.338,93.72-194.338,204.657c0,110.919,88.992,204.639,194.338,204.639
		h424.01c105.349,0,194.339-93.72,194.339-204.639C926.246,283.612,843.018,192.447,742.294,186.547z M731.907,560.197h-424.01
		c-84.713,0-159.004-79.124-159.004-169.305c0-90.2,74.291-169.323,159.004-169.323c22.256,0,44.237,4.851,65.32,14.407
		c5.176,2.348,11.111,2.038,16.045-0.741c4.935-2.795,8.179-7.798,8.799-13.405c8.938-80.728,76.498-141.598,157.175-141.598
		c75.43,0,140.956,53.625,155.831,127.519c1.656,8.263,8.936,14.181,17.32,14.181c1.692,0.173,3.002-0.155,3.52-0.363
		c84.713,0,159.004,79.124,159.004,169.323C890.911,481.073,816.62,560.197,731.907,560.197z"/>
	<path fill="#231F20" d="M325.045,918.145c3.451,3.313,7.868,4.969,12.284,4.969c4.625,0,9.248-1.796,12.698-5.385l111.904-115.577
		c4.935-5.09,6.315-12.646,3.554-19.187c-2.76-6.521-9.178-10.764-16.252-10.764h-42.546l70.805-65.786
		c7.146-6.644,7.556-17.822,0.899-24.965c-6.625-7.144-17.841-7.557-24.95-0.915l-103.759,96.394
		c-5.314,4.932-7.075,12.646-4.417,19.392c2.657,6.762,9.178,11.216,16.425,11.216h45.824l-82.884,85.625
		C317.868,900.167,318.041,911.346,325.045,918.145z"/>
	<path fill="#231F20" d="M612,781.637l88.23-88.23c6.903-6.901,6.903-18.082,0-24.983c-6.898-6.901-18.083-6.901-24.981,0
		l-88.232,88.23c-6.901,6.904-6.901,18.082,0,24.983c3.451,3.452,7.971,5.177,12.49,5.177
		C604.028,786.814,608.547,785.089,612,781.637z"/>
	<path fill="#231F20" d="M523.559,870.075l35.334-35.334c6.903-6.898,6.903-18.08,0-24.981c-6.898-6.901-18.083-6.901-24.981,0
		l-35.334,35.334c-6.904,6.901-6.904,18.083,0,24.981c3.449,3.452,7.972,5.177,12.49,5.177
		C515.587,875.252,520.11,873.528,523.559,870.075z"/>
	<path fill="#231F20" d="M223.322,781.637l88.233-88.23c6.901-6.901,6.901-18.082,0-24.983s-18.083-6.901-24.984,0l-88.231,88.23
		c-6.901,6.904-6.901,18.082,0,24.983c3.451,3.452,7.971,5.177,12.492,5.177C215.351,786.814,219.871,785.089,223.322,781.637z"/>
	<path fill="#231F20" d="M134.884,870.075l35.334-35.334c6.901-6.898,6.901-18.08,0-24.981s-18.083-6.901-24.984,0L109.9,845.094
		c-6.901,6.901-6.901,18.083,0,24.981c3.452,3.452,7.971,5.177,12.492,5.177C126.913,875.252,131.432,873.528,134.884,870.075z"/>
</g>
</svg>
